<svg id="Ebene_1" data-name="Ebene 1" xmlns="http://www.w3.org/2000/svg" viewBox="0 0 260.68 240"><path d="M173.11,347.43c-.76-.3-3.56-.72-3.56-1.88,0-.86,1-1.11,1.68-1.11a2.52,2.52,0,0,1,1.62.52,1.61,1.61,0,0,1,.4.57c.09.25.15.51.51.51h1.87c.44,0,.55-.07.55-.53,0-2.52-2.65-3.62-5.07-3.62s-4.63,1.31-4.63,3.79,1.77,3.18,3.7,3.79c1.62.52,3.31.54,3.31,1.6s-.83,1.3-1.86,1.3a2.49,2.49,0,0,1-1.87-.63,1.28,1.28,0,0,1-.36-.78c0-.48-.25-.53-.69-.53h-1.85c-.44,0-.55.09-.55.53,0,2.67,2.74,4,5.13,4,2.93,0,5.07-1.3,5.07-4s-2-3.15-3.4-3.57Z" transform="translate(-144.66 -115)" style="fill:#6787b7"/><path d="M203.23,342.18h-1.89c-.34,0-.55.11-.55.55v7.73a2.06,2.06,0,0,1-4.1,0v-7.73c0-.44-.21-.55-.55-.55h-1.89c-.34,0-.55.11-.55.55v8.15c0,3,2.76,4.12,5,4.12s5.05-1.12,5.05-4.12v-8.15c0-.44-.21-.55-.55-.55Z" transform="translate(-144.66 -115)" style="fill:#6787b7"/><path d="M232.3,354.1l-2.69-3.9a4.1,4.1,0,0,0,2.65-3.79,4.16,4.16,0,0,0-1.11-3c-.8-.8-1.71-1.22-3.79-1.22h-4.8c-.44,0-.54.21-.54.56v11.41c0,.44.19.55.54.55h1.88c.35,0,.56-.11.56-.55v-9.3h2.53a1.62,1.62,0,0,1,1.75,1.62,1.7,1.7,0,0,1-1.81,1.55h-.38c-.44,0-.55.21-.55.55v1.52a1.39,1.39,0,0,0,.21,1l2.06,3.07a1,1,0,0,0,.95.57H232c.36,0,.46-.34.29-.61Z" transform="translate(-144.66 -115)" style="fill:#6787b7"/><path d="M258.54,342.18h-8.19c-.44,0-.55.2-.55.55v11.43c0,.34.11.55.55.55h1.88c.44,0,.56-.07.56-.57v-4.46h5c.44,0,.55-.21.55-.55v-1.5c0-.35-.11-.56-.55-.56h-5v-2.23h5.75c.44,0,.55-.21.55-.55v-1.56c0-.35-.11-.55-.55-.55Z" transform="translate(-144.66 -115)" style="fill:#6787b7"/><path d="M296.89,347.43c-.76-.3-3.56-.72-3.56-1.88,0-.86,1.05-1.11,1.68-1.11a2.5,2.5,0,0,1,1.62.52,1.61,1.61,0,0,1,.4.57c.09.25.15.51.51.51h1.87c.44,0,.55-.07.55-.53,0-2.52-2.65-3.62-5.07-3.62s-4.63,1.31-4.63,3.79,1.77,3.18,3.7,3.79c1.62.52,3.32.54,3.32,1.6s-.84,1.3-1.87,1.3a2.49,2.49,0,0,1-1.87-.63,1.28,1.28,0,0,1-.36-.78c0-.48-.25-.53-.69-.53h-1.85c-.43,0-.55.09-.55.53,0,2.67,2.75,4,5.13,4,2.93,0,5.07-1.3,5.07-4s-2-3.15-3.4-3.57Z" transform="translate(-144.66 -115)" style="fill:#6787b7"/><path d="M327.47,342.18h-1.89c-.34,0-.55.11-.55.55V347h-4.25v-4.3c0-.44-.19-.55-.55-.55h-1.89c-.34,0-.55.11-.55.55v11.43c0,.44.21.55.55.55h1.89c.36,0,.55-.11.55-.55v-4.31H325v4.31c0,.44.21.55.55.55h1.89c.34,0,.55-.11.55-.55V342.73C328,342.29,327.81,342.18,327.47,342.18Z" transform="translate(-144.66 -115)" style="fill:#6787b7"/><path d="M356.13,346.2c0-3-2.86-4.31-5.12-4.31s-5.09,1.3-5.09,4.31v4.49c0,3,2.82,4.31,5.09,4.31s5.12-1.3,5.12-4.31Zm-3,4.23a2.14,2.14,0,0,1-4.25,0v-4a2.14,2.14,0,0,1,4.25,0Z" transform="translate(-144.66 -115)" style="fill:#6787b7"/><path d="M378.7,342.18h-4.29c-.44,0-.55.2-.55.55v11.43c0,.44.21.55.55.55h1.89c.34,0,.55-.11.55-.55V351h1.83c3.26,0,5-1.76,5-4.4S382,342.18,378.7,342.18Zm0,6.25h-1.83v-3.57h1.83c1.48,0,2.13.8,2.13,1.79S380.16,348.43,378.68,348.43Z" transform="translate(-144.66 -115)" style="fill:#6787b7"/><path d="M161.82,330.85q8.64,0,13.23-8.2a25.79,25.79,0,0,0,3.17-12.89,21,21,0,0,0-.15-2.54l-12.94,1a14.61,14.61,0,0,1,.24,2.5,15.49,15.49,0,0,1-.86,5,13.38,13.38,0,0,1-2.3,4.08,4,4,0,0,1-2.93,1.53,2.87,2.87,0,0,1-1.91-.62c-1.49-1.11-2.21-3.07-2.21-5.8a13.41,13.41,0,0,1,3.4-8.92c2.59-3,6.33-4.79,11.17-5.51l3-9.83a26.41,26.41,0,0,1-5,.53,9.65,9.65,0,0,1-5-1.1,3.59,3.59,0,0,1-1.87-2.55l-.05-.62a4.38,4.38,0,0,1,1-2.73,4,4,0,0,1,3.35-1.77c1.82,0,3.55,1.1,5.08,3.26l5.76-11a26.28,26.28,0,0,0-11.22-2.88,16.11,16.11,0,0,0-9.11,2.54,13.89,13.89,0,0,0-5.22,6.33,13.05,13.05,0,0,0,3.3,15.05,24.92,24.92,0,0,0-3.54,3.5,24.39,24.39,0,0,0-2.74,4.17,23.45,23.45,0,0,0-1.82,4.56,18.85,18.85,0,0,0-.76,3.88c-.1,1-.15,1.77-.15,2.2a17.75,17.75,0,0,0,1.49,7.48c2,4.51,5.61,7.38,10.83,8.68a19.25,19.25,0,0,0,4.84.62Z" transform="translate(-144.66 -115)" style="fill:#6787b7"/><path d="M188.57,331.33a27.08,27.08,0,0,1,4.75-1.25,28.57,28.57,0,0,0,4.74-1.19c-.05-1.92-.05-3.79-.05-5.76v-2.87a38.9,38.9,0,0,0,16,5.65l3.11-11a29.66,29.66,0,0,1-4.84.43,26.81,26.81,0,0,1-10-1.92,47.59,47.59,0,0,0,6.9-5.13,33.06,33.06,0,0,0,4.84-5.46,24,24,0,0,0,2.93-5.61,19.3,19.3,0,0,0,1.15-4.56c0-1.15.09-1.91.09-2.39a18.22,18.22,0,0,0-2.25-8.82,19.67,19.67,0,0,0-7.43-7.39,23.42,23.42,0,0,0-11.46-2.82q-8.91,0-18.5,5.61L182.72,287A29.46,29.46,0,0,1,188,284.4c-.24,6.66-.34,13.76-.34,21.19,0,12.27.29,20.85,1,25.74Zm9.78-26c.29-7.53.77-15.05,1.44-22.48a11.29,11.29,0,0,1,6.76,3.59,8.22,8.22,0,0,1,1.82,5.18,11.33,11.33,0,0,1-1.53,5.42,26.6,26.6,0,0,1-8.49,8.29Z" transform="translate(-144.66 -115)" style="fill:#6787b7"/><path d="M228,283.35a7.65,7.65,0,0,0,2.54-.53,6.37,6.37,0,0,0,2.88-2.16,5.35,5.35,0,0,0,1.15-3.21,5,5,0,0,0-1.15-3,6.13,6.13,0,0,0-5.08-2.4,5.71,5.71,0,0,0-3.5,1.73,7.09,7.09,0,0,0-2.11,4.94,4,4,0,0,0,1.15,2.92,5.23,5.23,0,0,0,4.12,1.73Zm-4.69,46.49,9.44-4.31a117.76,117.76,0,0,1-1.06-16A129.76,129.76,0,0,1,234,285.5L222.22,287c-.48,1.1-.67,5-.67,11.74a255.75,255.75,0,0,0,1.1,26.23C222.85,327,223.09,328.65,223.33,329.84Z" transform="translate(-144.66 -115)" style="fill:#6787b7"/><path d="M256.5,330.71a15.45,15.45,0,0,0,5.84-1.2,14.45,14.45,0,0,0,6.33-5.18,20.55,20.55,0,0,0,3.65-12.13,24.49,24.49,0,0,0-.48-5.08H260.33a11.28,11.28,0,0,1,.48,3.36,12,12,0,0,1-1.1,5.08,8.36,8.36,0,0,1-2.78,3.59,4.17,4.17,0,0,1-2.21.68,4.1,4.1,0,0,1-3.45-2.26c-1.77-2.68-2.68-6.9-2.68-12.7a40.16,40.16,0,0,1,2.25-14.19c1.73-4.6,4-6.95,6.76-6.95a7.8,7.8,0,0,1,4.6,1.92c2.59-6,4.08-9.21,4.46-9.59-3.5-2.44-6.9-3.69-10.21-3.69a12.74,12.74,0,0,0-8.58,3.31c-4.56,3.83-7.77,10.4-9.68,19.75A51.83,51.83,0,0,0,237.13,306a38.82,38.82,0,0,0,.48,6.33A27.68,27.68,0,0,0,241,322a16.49,16.49,0,0,0,7,6.66,18.23,18.23,0,0,0,8.49,2Z" transform="translate(-144.66 -115)" style="fill:#6787b7"/><path d="M292.54,330.85q8.64,0,13.23-8.2a25.79,25.79,0,0,0,3.17-12.89,21,21,0,0,0-.15-2.54l-12.94,1a13.67,13.67,0,0,1,.24,2.5,15.49,15.49,0,0,1-.86,5,13.18,13.18,0,0,1-2.3,4.08,4,4,0,0,1-2.93,1.53,2.87,2.87,0,0,1-1.91-.62c-1.49-1.11-2.21-3.07-2.21-5.8a13.41,13.41,0,0,1,3.4-8.92c2.59-3,6.33-4.79,11.17-5.51l3-9.83a26.59,26.59,0,0,1-5,.53,9.65,9.65,0,0,1-5-1.1,3.62,3.62,0,0,1-1.87-2.55l-.05-.62a4.38,4.38,0,0,1,1-2.73,4,4,0,0,1,3.35-1.77c1.83,0,3.55,1.1,5.09,3.26l5.75-11a26.28,26.28,0,0,0-11.22-2.88,16.11,16.11,0,0,0-9.11,2.54,14,14,0,0,0-5.22,6.33,13.09,13.09,0,0,0,3.31,15.05,24.48,24.48,0,0,0-3.55,3.5,23.75,23.75,0,0,0-2.73,4.17,23.49,23.49,0,0,0-1.83,4.56,19.55,19.55,0,0,0-.76,3.88c-.1,1-.15,1.77-.15,2.2a17.75,17.75,0,0,0,1.49,7.48c2,4.51,5.61,7.38,10.83,8.68a19.25,19.25,0,0,0,4.84.62Z" transform="translate(-144.66 -115)" style="fill:#6787b7"/><path d="M319.58,283.35a7.65,7.65,0,0,0,2.54-.53,6.37,6.37,0,0,0,2.88-2.16,5.42,5.42,0,0,0,1.15-3.21,5,5,0,0,0-1.15-3,6.14,6.14,0,0,0-5.08-2.4,5.66,5.66,0,0,0-3.5,1.73,7.09,7.09,0,0,0-2.11,4.94,4,4,0,0,0,1.15,2.92,5.2,5.2,0,0,0,4.12,1.73Zm-4.7,46.49,9.45-4.31a117.76,117.76,0,0,1-1.06-16,129.76,129.76,0,0,1,2.3-24.07L313.78,287c-.48,1.1-.67,5-.67,11.74a252.92,252.92,0,0,0,1.1,26.23,47.39,47.39,0,0,0,.67,4.88Z" transform="translate(-144.66 -115)" style="fill:#6787b7"/><path d="M386.74,329.84l18.6-5.27a3.34,3.34,0,0,1-.91-1,17.68,17.68,0,0,1-2.83-6.37,45.34,45.34,0,0,1-1.54-6.57A127,127,0,0,1,398.2,289c-.05-1.87-.05-4.85-.05-8.92.05-2.88.09-5.9.19-9.11a105.79,105.79,0,0,1-15.29,1.3,43.1,43.1,0,0,1-7.82-.72c-.24,4.45-.57,9.06-1.1,13.75a221,221,0,0,1-5.75,30.83,34.08,34.08,0,0,0,8.58,1,13.11,13.11,0,0,0,2.59-.19c.05-.19.09-.86.19-2l.24-2.45,7.33-1.48Zm-48.08,1.49a22.58,22.58,0,0,1,4.74-1.25,26.4,26.4,0,0,0,4.75-1.24c0-2.64,0-5.28,0-7.91a53.47,53.47,0,0,0,9,4.89A58,58,0,0,0,380.17,331h1.44l2-11a35.7,35.7,0,0,1-5.56.43,49.57,49.57,0,0,1-11.5-1.44,61.83,61.83,0,0,1-14.67-5.32,40.09,40.09,0,0,0,11.31-9.59c3.45-4.46,5.18-9,5.18-13.71a18.73,18.73,0,0,0-1.1-6.33,19.18,19.18,0,0,0-5.42-7.81c-4-3.4-8.92-5.08-14.86-5.08a30.09,30.09,0,0,0-5.7.57,42.23,42.23,0,0,0-6.14,1.83,40.9,40.9,0,0,0-6.42,3.21l4.07,10.11a37.79,37.79,0,0,1,5.23-2.59c-.24,6.81-.34,13.57-.34,20.33,0,12.84.34,21.71,1,26.65Zm9.78-26q.44-11.28,1.44-22.43a15.08,15.08,0,0,1,3.5,1.05,12.43,12.43,0,0,1,2.68,1.87,8.93,8.93,0,0,1,1.73,2.45,6.73,6.73,0,0,1,.67,2.25c0,.57,0,.91,0,1a11.65,11.65,0,0,1-2.2,6.56,27.75,27.75,0,0,1-7.86,7.24Zm32.93-1.05,2.3-11.8,4.46-.86-.53,12.08Z" transform="translate(-144.66 -115)" style="fill:#6787b7"/><path d="M338.52,203.7a19.58,19.58,0,0,0,3.67-2.67l-1,2v-.66c-1,3-2,1.33-4.67,8-1,2-2.33,4.67-3.33,7-1.34,1.67-3,3.67-4.34,5.34a67.2,67.2,0,0,1-4.67,5.33,52.05,52.05,0,0,1-4.33,4.34,56.75,56.75,0,0,0-5,4.33,18.84,18.84,0,0,0-2.67,1.67,18.64,18.64,0,0,1-2.33,1.33,26.17,26.17,0,0,1-3.67,1.34,18.73,18.73,0,0,1-4.07.07h0c-.63,0-1.26-.07-1.92-.07s-1.26,0-2-.07a35.84,35.84,0,0,0-5.71.07,50,50,0,0,0-5.67.66q-3,.51-8,1a45,45,0,0,0-6.66-.33c-2.34-.33-4.34-.33-6.67-.67-2-.33-4.34-.66-6.34-1a44.78,44.78,0,0,1-6.33-1.66c-1.67-.67-3.34-1.34-4.67-2a18.84,18.84,0,0,1-2.67-1.67c-1-.67-1.67-1.34-2.34-1.67l-4-3a38,38,0,0,1-4.33-3.33c-1.34-1.34-3-2.67-5-4.34a22.38,22.38,0,0,1-3.67-4c-1.34-1.67-1.67-3-.33-3a67.86,67.86,0,0,1-11.68-16.68c-3-6.33-4.66-13.33-4.33-19.34l-2-5a67.84,67.84,0,0,1,6.33-18c1.67-2.34,3-4.67,4.67-7a18.14,18.14,0,0,0,1.67-2.66,30.67,30.67,0,0,0,2-3.34,7.17,7.17,0,0,0,1-1.67c.33-.66,1-1.33,1.33-2a28.69,28.69,0,0,1,2.67-4c4-5.33,9.34-10.67,15.34-14l2-1a56.08,56.08,0,0,1,22.34-6c.89,0,1.78,0,2.67-.07a32.84,32.84,0,0,1,5.34.07c.33,0,.65,0,1,0a7,7,0,0,0,3.34-.37c1,.33,2.34.33,3.67.67l2,.33c.67.33,1.33.33,2,.67,1.33.33,2.34.66,3.67,1s2.67,1,3.67,1.33c1,.67,2.33,1,3.33,1.67,9,4.67,16.67,11,22,19l2,3a13.67,13.67,0,0,1,1.67,3,47.58,47.58,0,0,1,2.33,6.33,9.55,9.55,0,0,1,.67,3c0,1,.33,2,.33,3a30.69,30.69,0,0,1-.33,5.66c-.33.67-.33,1.67-.67,2.34a20.9,20.9,0,0,1-.66,2.33,4.75,4.75,0,0,1-.67,2,7.17,7.17,0,0,1-1,1.67c-1.67,2-3,3.34-4.67,3.67-.67.33-1.33-.33-2-1.33a7.39,7.39,0,0,1-1-1.67c-.33-.34-.33-.67-.67-1-.33-.67-.33-1-.67-1.34-.33-1-1-1.66-1.33-2.66s-1-1.67-1.33-2.67c-.67-1-1-1.67-1.67-2.67-.67-.67-1-1.67-1.67-2.33-.33-.34-.33-.67-.66-1.34-.34-.33-.34-1-.67-1.66-.33-1-.67-2.34-1.67-3a29.55,29.55,0,0,0-11.34-5.33,33.51,33.51,0,0,0-11.33-1c-1,0-2,.33-3,.33s-2,.34-3,.34c-2.66.66-5,1-7.33,1.66a11.79,11.79,0,0,0-7.34,5c-2.33,3.34-2.67,7-2.67,10.34,0,.57,0,1.14.08,1.7a10,10,0,0,1-.08,3,1.67,1.67,0,0,0-1,.33c-.33,0-.66,0-.66.34v.66a2,2,0,0,0,.33,1.34c.33.33.33,1,.67,1.33a8.94,8.94,0,0,0,2.33,2.67l.34.33.66.34c.34.33.67.33,1,.66.34,0,.67.34,1,.34h.67a.32.32,0,0,0,.33.33c.67.33,1,.33,1.34.67l.33.33V181c0,.34-.33.67-.33,1a22.93,22.93,0,0,1-1.34,3.34c.24.23.63.14,1,.06h0a2.1,2.1,0,0,1,.38-.06h1.33c.33,0,.67-.33,1-.33s.33-.34.67-.34V185c.33.66.66,2,1,3a1.66,1.66,0,0,1-.14.67h.14V190l-.34-.34a.32.32,0,0,0-.33-.33c-.33,0-.33.33-.67.33a5.38,5.38,0,0,0,1,2.67c.34-.33,1-.66,1.34-1,.33.67.67,1,1,1.67l1.33,1.33c.67.34,1,1,1.67,1.34a7.54,7.54,0,0,0,1.67,1c.33.33.33.33.66.33h4.67a3,3,0,0,0,2,2,4.29,4.29,0,0,0,2,.33,8.37,8.37,0,0,0,2.67-.33c.34,0,.67-.33,1-.33a4.49,4.49,0,0,0,2.34,2,5.35,5.35,0,0,0,3,1,4.9,4.9,0,0,0,2,.08,12.78,12.78,0,0,1,1.3-.08c1.34-.33,2.34-.67,3.67-1a1.23,1.23,0,0,0-.33,1,.63.63,0,0,0,1,0,9.5,9.5,0,0,0-1.1,1.39l.1-.06,2-1a2.76,2.76,0,0,0-.69,2.28c0,.13,0,.26,0,.39h.33a16.54,16.54,0,0,0,2.34-1c0,.33-.34.67-.67,1.33.33-.66,1-1,1.34-1.66a11.68,11.68,0,0,1,4.66-1,14.49,14.49,0,0,0,5.34-2.34c0,.34-.33.67-.33,1a4.67,4.67,0,0,0,1-1.33,35.57,35.57,0,0,0,4-3.34v2h-.34V201a17,17,0,0,0-.66,4,14.72,14.72,0,0,0-.34,3.67c0,2,.34,3.67,2.34,3.34a7.3,7.3,0,0,1,1.66-1.34c.34-.66,1-1,1.67-1.66a9,9,0,0,0,2-1.67l1-1c0-.34.34-.67.67-1l.21-.25h0c1.9-2.22,3.47-4.05,4.12-3.41a3.41,3.41,0,0,0,1.66,2,4.55,4.55,0,0,0,3,0ZM229,175.51l0-.1a2.38,2.38,0,0,1,.1-2.14l.15-.25a1.88,1.88,0,0,1,1.5-1,2.59,2.59,0,0,1,1,.06,2.22,2.22,0,0,1,1.63,1.74c0,.15.06.31.09.47s.08.23.23.24.19.11.22.22l.09.49c.09.44.2.5.65.45l2.72-.32a7.8,7.8,0,0,1,2.31.15,28.82,28.82,0,0,0,3.71.53c.39,0,.79.09,1.17.15a11.22,11.22,0,0,0,1.53.09,4.43,4.43,0,0,1,1.35.21,29.72,29.72,0,0,0,4,.94l.72.09a.27.27,0,0,1,.22.1.32.32,0,0,0,.38.09l.09,0a2.79,2.79,0,0,1,1.16-.28c.5,0,1-.06,1.51-.07a2.58,2.58,0,0,1,.39,0H256a.62.62,0,0,1,.19.07.24.24,0,0,1,.13.24c0,.1-.13.1-.21.1h-.6a3.86,3.86,0,0,0-.49.06,1,1,0,0,0-.21.07.42.42,0,0,0,.34.11,5.35,5.35,0,0,1,1.53.23.64.64,0,0,1,.25.15.19.19,0,0,1,0,.18s-.1.08-.15.07a3.15,3.15,0,0,1-.43-.05l-.58-.17a1.28,1.28,0,0,0-.56-.05l.12,0,.12,0c.35.09.7.18,1,.29a1.41,1.41,0,0,1,.38.21.21.21,0,0,1,.1.25.21.21,0,0,1-.23.15,1.45,1.45,0,0,1-.41-.06c-.2,0-.4-.11-.6-.16s-.24,0-.36,0l0,0,.12.06.54.12a1.41,1.41,0,0,1,.31.1.25.25,0,0,1,.16.23c0,.15,0,.21-.19.2l-.89,0c-.17,0-.31,0-.4.17a.25.25,0,0,1-.17.1,2.63,2.63,0,0,0-.92.21.35.35,0,0,1-.3,0,9.17,9.17,0,0,1-.87-.48,2.75,2.75,0,0,0-.91-.36,10,10,0,0,0-3.44-.27,3.82,3.82,0,0,1-1.39-.12,6.52,6.52,0,0,0-2.41-.11c-.89.1-1.78.13-2.67.19h-.06c-.14,0-.18.09-.09.21.23.29.46.59.71.86a7.82,7.82,0,0,0,1.33,1c.35.22.7.45,1.06.66a5.86,5.86,0,0,1,2.43,2.9,6.54,6.54,0,0,1,.53,2.34q0,.65,0,1.29V189c0,.6,0,1.2,0,1.8,0,.91.07,1.81.12,2.72a16.3,16.3,0,0,0,.45,3.26c.07.25.15.5.23.75a.59.59,0,0,0,.4.41c.22.07.43.14.64.23a5.38,5.38,0,0,1,1.93,1.44c.32.37.63.74.91,1.13.68.93,1.39,1.83,2.14,2.7.62.71,1.22,1.45,1.84,2.17s.52.62,1.47.91a3.76,3.76,0,0,0,.75.1c.91.1,1.81.29,2.7.46l3.76.69c1.53.27,3.07.52,4.61.78l5.49.88,4.57.73,4.36.69,4.55.7c.43.07.86.18,1.29.29a2.66,2.66,0,0,1,.55.23c.31.18.33.42.1.69a1.42,1.42,0,0,1-.69.4l-.93.28-2.13.68a15.87,15.87,0,0,1-3,.62c-1,.1-2.06.21-3.1.28s-2.33.12-3.5.14-2.14,0-3.21,0c-1.4,0-2.79-.12-4.19-.22-1.07-.08-2.15-.19-3.22-.31a62.49,62.49,0,0,1-13.17-2.83c-2.51-.84-5-1.76-7.5-2.66-1.77-.63-3.56-1.25-5.33-1.89-1.1-.4-2.2-.82-3.26-1.33-.34-.17-.68-.36-1-.54a2.92,2.92,0,0,1-.28-.21.89.89,0,0,1-.09-1.25,1.38,1.38,0,0,1,.95-.49,4.23,4.23,0,0,1,.87,0l.14,0,1.86.19c.32,0,.64.06,1,.07a2,2,0,0,0,.55,0,.43.43,0,0,0,.33-.57,1.51,1.51,0,0,0-.28-.55c-.17-.21-.33-.42-.49-.64a2.45,2.45,0,0,0-.75-.65c-.32-.16-.65-.31-1-.44a9.47,9.47,0,0,1-1.74-.88,2.92,2.92,0,0,1-.28-.21,4.4,4.4,0,0,0-1.1-.66c-.24-.12-.48-.24-.71-.38a1.64,1.64,0,0,1-.77-1,1.14,1.14,0,0,1,0-.58c.14-.63.28-1.27.41-1.9.34-1.58.66-3.17,1.12-4.72a9.53,9.53,0,0,1,.74-1.85c.22-.4.41-.82.61-1.24a.76.76,0,0,0,.06-.16c0-.12,0-.18-.09-.23a2,2,0,0,0-.22-.08l-1.12-.43a4,4,0,0,1-1.13-.68,4.37,4.37,0,0,0-1.19-.71,4.1,4.1,0,0,1-.75-.39,7.37,7.37,0,0,0-2.3-.91.34.34,0,0,0-.38.14,4.92,4.92,0,0,0-.5.78,2.3,2.3,0,0,1-.32.49l-1.05,1.33c-.12.16-.22.32-.33.48s-.35.5-.53.74a5.2,5.2,0,0,0-.62,1,2.66,2.66,0,0,1-.57.76c-.5.5-1,1-1.52,1.47-.25.24-.54.44-.8.66s-.77.61-1.14.93a9.61,9.61,0,0,1-1.34,1,.46.46,0,0,0-.18.21,1.16,1.16,0,0,0-.1.28,1.07,1.07,0,0,1-.68.72,1.3,1.3,0,0,0-.17.08.53.53,0,0,0-.15.19.37.37,0,0,1-.27.28,1.63,1.63,0,0,1-.79.1.86.86,0,0,1-.64-.61.88.88,0,0,1,0-.32,1,1,0,0,1,.14-.21,4,4,0,0,1,.28-.3,11.71,11.71,0,0,0,2-2.15c.45-.59.88-1.18,1.32-1.77a8.35,8.35,0,0,0,.86-1.4,6.62,6.62,0,0,1,1.93-2.43,3.7,3.7,0,0,0,.6-.65,9.82,9.82,0,0,0,1.09-1.95,4.92,4.92,0,0,0,.21-.84,8.18,8.18,0,0,1,.38-1.28,2.85,2.85,0,0,1,.59-.91c.27-.27.52-.55.78-.83a1,1,0,0,0,.2-.25,6.6,6.6,0,0,1,.82-1.21.86.86,0,0,0,.07-.1.18.18,0,0,0,0-.25,2.32,2.32,0,0,1-.34-.59.2.2,0,0,0-.14-.13.63.63,0,0,1-.43-.41.77.77,0,0,1-.07-.16l-.31-.9c-.07-.19,0-.24.14-.32l.06,0,0,0Zm100.57,2.85a6.44,6.44,0,0,1-1-2.67A23.28,23.28,0,0,1,329.52,178.36Zm-8.06,3.39a3,3,0,0,0-.28-1.06,3.43,3.43,0,0,0-.33-1.33c-.33,0-.67.66-1,1a15.87,15.87,0,0,0-1,2.33,8,8,0,0,0-.67,2.67,7.93,7.93,0,0,0-.66,2.67v-3.34c0-1.33-.34-2.33-.34-3.67-.33.67-1,1-1.33,1.67s-.33,1.67-.67,2.34v-1a8.58,8.58,0,0,0-.67,2.33,5,5,0,0,0-.33,2.33l-1,4a12.45,12.45,0,0,1,4-2.34c1.67-.67,3-2,4.67-3.67a27.25,27.25,0,0,1,.33-5,2.17,2.17,0,0,0-.72.06ZM280.5,193a4.63,4.63,0,0,1-1.33-1c-.26-.51-.12-.63.26-1,.11-.1.25-.22.41-.38h1l-.67-.66c.33,0,.67.33,1,.33v1c0,.34.33.34.33.67,0-.33.34-.67.34-1a4.75,4.75,0,0,0,2,.67,4.85,4.85,0,0,1-.67,2.33c-.33-.33-.33-.33-.67-.33-.66-.34-1.33-.34-2-.67Zm-35.67,11.08c.12.06.18.11.26.14l.36.09,2.61.46,3.54.57,1.15.2a1.55,1.55,0,0,0,.43,0,.18.18,0,0,0,.15-.29,2.06,2.06,0,0,0-.23-.37c-.19-.24-.4-.47-.59-.72a1.26,1.26,0,0,0-.47-.39,26.23,26.23,0,0,1-2.33-1.41,3.73,3.73,0,0,1-1-1,1.22,1.22,0,0,0-.42-.36c-.46-.21-.91-.44-1.37-.66l-.66-.29a.71.71,0,0,1-.34-.3c-.14-.23-.27-.46-.42-.68a3.21,3.21,0,0,1-.43-1,21.84,21.84,0,0,1-.41-2.55,14.85,14.85,0,0,0-.71-3.17,1.38,1.38,0,0,0-.5-.7c-.27-.19-.55-.35-.83-.51a.25.25,0,0,0-.36.08.94.94,0,0,0-.14.26c-.07.15-.14.32-.2.48a3.74,3.74,0,0,1-.55.92,9.89,9.89,0,0,0-.7.9l-1.34,2.1-.09.19a.41.41,0,0,0,.09.46,4.15,4.15,0,0,0,.32.27c.22.15.46.3.68.46a4,4,0,0,1,1.32,1.55,2.4,2.4,0,0,0,1,1.05,1.07,1.07,0,0,0,.35.14,1,1,0,0,1,.59.34c.1.11.18.22.28.31a1.31,1.31,0,0,0,.32.26,2.11,2.11,0,0,1,.76.66,6.13,6.13,0,0,1,.44.6,2.24,2.24,0,0,1,.26.54.81.81,0,0,1-.22.89c-.1.1-.22.18-.32.27l-.23.2Zm56-10.08c1-1,1.67-1.67,2-.67a14.22,14.22,0,0,0,2.34,2l-1,1a10.29,10.29,0,0,1-5,3,3.26,3.26,0,0,1-2.67-1ZM271.5,197.7h.33V197a4.29,4.29,0,0,1-2-.33h-.33v.66c.22-.22.44-.14.66-.07h0a1.09,1.09,0,0,0,.34.07c.33,0,.67.34,1,.34Z" transform="translate(-144.66 -115)" style="fill:#6787b7;fill-rule:evenodd"/></svg>