<svg id="Ebene_1" data-name="Ebene 1" xmlns="http://www.w3.org/2000/svg" viewBox="0 0 134.38 127.71"><path d="M338.52,203.7a19.58,19.58,0,0,0,3.67-2.67l-1,2v-.66c-1,3-2,1.33-4.67,8-1,2-2.33,4.67-3.33,7-1.34,1.67-3,3.67-4.34,5.34a67.2,67.2,0,0,1-4.67,5.33,52.05,52.05,0,0,1-4.33,4.34,56.75,56.75,0,0,0-5,4.33,18.84,18.84,0,0,0-2.67,1.67,18.64,18.64,0,0,1-2.33,1.33,26.17,26.17,0,0,1-3.67,1.34,18.73,18.73,0,0,1-4.07.07h0c-.63,0-1.26-.07-1.92-.07s-1.26,0-2-.07a35.84,35.84,0,0,0-5.71.07,50,50,0,0,0-5.67.66q-3,.51-8,1a45,45,0,0,0-6.66-.33c-2.34-.33-4.34-.33-6.67-.67-2-.33-4.34-.66-6.34-1a44.78,44.78,0,0,1-6.33-1.66c-1.67-.67-3.34-1.34-4.67-2a18.84,18.84,0,0,1-2.67-1.67c-1-.67-1.67-1.34-2.34-1.67l-4-3a38,38,0,0,1-4.33-3.33c-1.34-1.34-3-2.67-5-4.34a22.38,22.38,0,0,1-3.67-4c-1.34-1.67-1.67-3-.33-3a67.86,67.86,0,0,1-11.68-16.68c-3-6.33-4.66-13.33-4.33-19.34l-2-5a67.84,67.84,0,0,1,6.33-18c1.67-2.34,3-4.67,4.67-7a18.14,18.14,0,0,0,1.67-2.66,30.67,30.67,0,0,0,2-3.34,7.17,7.17,0,0,0,1-1.67c.33-.66,1-1.33,1.33-2a28.69,28.69,0,0,1,2.67-4c4-5.33,9.34-10.67,15.34-14l2-1a56.08,56.08,0,0,1,22.34-6c.89,0,1.78,0,2.67-.07a32.84,32.84,0,0,1,5.34.07c.33,0,.65,0,1,0a7,7,0,0,0,3.34-.37c1,.33,2.34.33,3.67.67l2,.33c.67.33,1.33.33,2,.67,1.33.33,2.34.66,3.67,1s2.67,1,3.67,1.33c1,.67,2.33,1,3.33,1.67,9,4.67,16.67,11,22,19l2,3a13.67,13.67,0,0,1,1.67,3,47.58,47.58,0,0,1,2.33,6.33,9.55,9.55,0,0,1,.67,3c0,1,.33,2,.33,3a30.69,30.69,0,0,1-.33,5.66c-.33.67-.33,1.67-.67,2.34a20.9,20.9,0,0,1-.66,2.33,4.75,4.75,0,0,1-.67,2,7.17,7.17,0,0,1-1,1.67c-1.67,2-3,3.34-4.67,3.67-.67.33-1.33-.33-2-1.33a7.39,7.39,0,0,1-1-1.67c-.33-.34-.33-.67-.67-1-.33-.67-.33-1-.67-1.34-.33-1-1-1.66-1.33-2.66s-1-1.67-1.33-2.67c-.67-1-1-1.67-1.67-2.67-.67-.67-1-1.67-1.67-2.33-.33-.34-.33-.67-.66-1.34-.34-.33-.34-1-.67-1.66-.33-1-.67-2.34-1.67-3a29.55,29.55,0,0,0-11.34-5.33,33.51,33.51,0,0,0-11.33-1c-1,0-2,.33-3,.33s-2,.34-3,.34c-2.66.66-5,1-7.33,1.66a11.79,11.79,0,0,0-7.34,5c-2.33,3.34-2.67,7-2.67,10.34,0,.57,0,1.14.08,1.7a10,10,0,0,1-.08,3,1.67,1.67,0,0,0-1,.33c-.33,0-.66,0-.66.34v.66a2,2,0,0,0,.33,1.34c.33.33.33,1,.67,1.33a8.94,8.94,0,0,0,2.33,2.67l.34.33.66.34c.34.33.67.33,1,.66.34,0,.67.34,1,.34h.67a.32.32,0,0,0,.33.33c.67.33,1,.33,1.34.67l.33.33V181c0,.34-.33.67-.33,1a22.93,22.93,0,0,1-1.34,3.34c.24.23.63.14,1,.06h0a2.1,2.1,0,0,1,.38-.06h1.33c.33,0,.67-.33,1-.33s.33-.34.67-.34V185c.33.66.66,2,1,3a1.66,1.66,0,0,1-.14.67h.14V190l-.34-.34a.32.32,0,0,0-.33-.33c-.33,0-.33.33-.67.33a5.38,5.38,0,0,0,1,2.67c.34-.33,1-.66,1.34-1,.33.67.67,1,1,1.67l1.33,1.33c.67.34,1,1,1.67,1.34a7.54,7.54,0,0,0,1.67,1c.33.33.33.33.66.33h4.67a3,3,0,0,0,2,2,4.29,4.29,0,0,0,2,.33,8.37,8.37,0,0,0,2.67-.33c.34,0,.67-.33,1-.33a4.49,4.49,0,0,0,2.34,2,5.35,5.35,0,0,0,3,1,4.9,4.9,0,0,0,2,.08,12.78,12.78,0,0,1,1.3-.08c1.34-.33,2.34-.67,3.67-1a1.23,1.23,0,0,0-.33,1,.63.63,0,0,0,1,0,9.5,9.5,0,0,0-1.1,1.39l.1-.06,2-1a2.76,2.76,0,0,0-.69,2.28c0,.13,0,.26,0,.39h.33a16.54,16.54,0,0,0,2.34-1c0,.33-.34.67-.67,1.33.33-.66,1-1,1.34-1.66a11.68,11.68,0,0,1,4.66-1,14.49,14.49,0,0,0,5.34-2.34c0,.34-.33.67-.33,1a4.67,4.67,0,0,0,1-1.33,35.57,35.57,0,0,0,4-3.34v2h-.34V201a17,17,0,0,0-.66,4,14.72,14.72,0,0,0-.34,3.67c0,2,.34,3.67,2.34,3.34a7.3,7.3,0,0,1,1.66-1.34c.34-.66,1-1,1.67-1.66a9,9,0,0,0,2-1.67l1-1c0-.34.34-.67.67-1l.21-.25h0c1.9-2.22,3.47-4.05,4.12-3.41a3.41,3.41,0,0,0,1.66,2,4.55,4.55,0,0,0,3,0ZM229,175.51l0-.1a2.38,2.38,0,0,1,.1-2.14l.15-.25a1.88,1.88,0,0,1,1.5-1,2.59,2.59,0,0,1,1,.06,2.22,2.22,0,0,1,1.63,1.74c0,.15.06.31.09.47s.08.23.23.24.19.11.22.22l.09.49c.09.44.2.5.65.45l2.72-.32a7.8,7.8,0,0,1,2.31.15,28.82,28.82,0,0,0,3.71.53c.39,0,.79.09,1.17.15a11.22,11.22,0,0,0,1.53.09,4.43,4.43,0,0,1,1.35.21,29.72,29.72,0,0,0,4,.94l.72.09a.27.27,0,0,1,.22.1.32.32,0,0,0,.38.09l.09,0a2.79,2.79,0,0,1,1.16-.28c.5,0,1-.06,1.51-.07a2.58,2.58,0,0,1,.39,0H256a.62.62,0,0,1,.19.07.24.24,0,0,1,.13.24c0,.1-.13.1-.21.1h-.6a3.86,3.86,0,0,0-.49.06,1,1,0,0,0-.21.07.42.42,0,0,0,.34.11,5.35,5.35,0,0,1,1.53.23.64.64,0,0,1,.25.15.19.19,0,0,1,0,.18s-.1.08-.15.07a3.15,3.15,0,0,1-.43-.05l-.58-.17a1.28,1.28,0,0,0-.56-.05l.12,0,.12,0c.35.09.7.18,1,.29a1.41,1.41,0,0,1,.38.21.21.21,0,0,1,.1.25.21.21,0,0,1-.23.15,1.45,1.45,0,0,1-.41-.06c-.2,0-.4-.11-.6-.16s-.24,0-.36,0l0,0,.12.06.54.12a1.41,1.41,0,0,1,.31.1.25.25,0,0,1,.16.23c0,.15,0,.21-.19.2l-.89,0c-.17,0-.31,0-.4.17a.25.25,0,0,1-.17.1,2.63,2.63,0,0,0-.92.21.35.35,0,0,1-.3,0,9.17,9.17,0,0,1-.87-.48,2.75,2.75,0,0,0-.91-.36,10,10,0,0,0-3.44-.27,3.82,3.82,0,0,1-1.39-.12,6.52,6.52,0,0,0-2.41-.11c-.89.1-1.78.13-2.67.19h-.06c-.14,0-.18.09-.09.21.23.29.46.59.71.86a7.82,7.82,0,0,0,1.33,1c.35.22.7.45,1.06.66a5.86,5.86,0,0,1,2.43,2.9,6.54,6.54,0,0,1,.53,2.34q0,.65,0,1.29V189c0,.6,0,1.2,0,1.8,0,.91.07,1.81.12,2.72a16.3,16.3,0,0,0,.45,3.26c.07.25.15.5.23.75a.59.59,0,0,0,.4.41c.22.07.43.14.64.23a5.38,5.38,0,0,1,1.93,1.44c.32.37.63.74.91,1.13.68.93,1.39,1.83,2.14,2.7.62.71,1.22,1.45,1.84,2.17s.52.62,1.47.91a3.76,3.76,0,0,0,.75.1c.91.1,1.81.29,2.7.46l3.76.69c1.53.27,3.07.52,4.61.78l5.49.88,4.57.73,4.36.69,4.55.7c.43.07.86.18,1.29.29a2.66,2.66,0,0,1,.55.23c.31.18.33.42.1.69a1.42,1.42,0,0,1-.69.4l-.93.28-2.13.68a15.87,15.87,0,0,1-3,.62c-1,.1-2.06.21-3.1.28s-2.33.12-3.5.14-2.14,0-3.21,0c-1.4,0-2.79-.12-4.19-.22-1.07-.08-2.15-.19-3.22-.31a62.49,62.49,0,0,1-13.17-2.83c-2.51-.84-5-1.76-7.5-2.66-1.77-.63-3.56-1.25-5.33-1.89-1.1-.4-2.2-.82-3.26-1.33-.34-.17-.68-.36-1-.54a2.92,2.92,0,0,1-.28-.21.89.89,0,0,1-.09-1.25,1.38,1.38,0,0,1,.95-.49,4.23,4.23,0,0,1,.87,0l.14,0,1.86.19c.32,0,.64.06,1,.07a2,2,0,0,0,.55,0,.43.43,0,0,0,.33-.57,1.51,1.51,0,0,0-.28-.55c-.17-.21-.33-.42-.49-.64a2.45,2.45,0,0,0-.75-.65c-.32-.16-.65-.31-1-.44a9.47,9.47,0,0,1-1.74-.88,2.92,2.92,0,0,1-.28-.21,4.4,4.4,0,0,0-1.1-.66c-.24-.12-.48-.24-.71-.38a1.64,1.64,0,0,1-.77-1,1.14,1.14,0,0,1,0-.58c.14-.63.28-1.27.41-1.9.34-1.58.66-3.17,1.12-4.72a9.53,9.53,0,0,1,.74-1.85c.22-.4.41-.82.61-1.24a.76.76,0,0,0,.06-.16c0-.12,0-.18-.09-.23a2,2,0,0,0-.22-.08l-1.12-.43a4,4,0,0,1-1.13-.68,4.37,4.37,0,0,0-1.19-.71,4.1,4.1,0,0,1-.75-.39,7.37,7.37,0,0,0-2.3-.91.34.34,0,0,0-.38.14,4.92,4.92,0,0,0-.5.78,2.3,2.3,0,0,1-.32.49l-1.05,1.33c-.12.16-.22.32-.33.48s-.35.5-.53.74a5.2,5.2,0,0,0-.62,1,2.66,2.66,0,0,1-.57.76c-.5.5-1,1-1.52,1.47-.25.24-.54.44-.8.66s-.77.61-1.14.93a9.61,9.61,0,0,1-1.34,1,.46.46,0,0,0-.18.21,1.16,1.16,0,0,0-.1.28,1.07,1.07,0,0,1-.68.72,1.3,1.3,0,0,0-.17.08.53.53,0,0,0-.15.19.37.37,0,0,1-.27.28,1.63,1.63,0,0,1-.79.1.86.86,0,0,1-.64-.61.88.88,0,0,1,0-.32,1,1,0,0,1,.14-.21,4,4,0,0,1,.28-.3,11.71,11.71,0,0,0,2-2.15c.45-.59.88-1.18,1.32-1.77a8.35,8.35,0,0,0,.86-1.4,6.62,6.62,0,0,1,1.93-2.43,3.7,3.7,0,0,0,.6-.65,9.82,9.82,0,0,0,1.09-1.95,4.92,4.92,0,0,0,.21-.84,8.18,8.18,0,0,1,.38-1.28,2.85,2.85,0,0,1,.59-.91c.27-.27.52-.55.78-.83a1,1,0,0,0,.2-.25,6.6,6.6,0,0,1,.82-1.21.86.86,0,0,0,.07-.1.18.18,0,0,0,0-.25,2.32,2.32,0,0,1-.34-.59.2.2,0,0,0-.14-.13.63.63,0,0,1-.43-.41.77.77,0,0,1-.07-.16l-.31-.9c-.07-.19,0-.24.14-.32l.06,0,0,0Zm100.57,2.85a6.44,6.44,0,0,1-1-2.67A23.28,23.28,0,0,1,329.52,178.36Zm-8.06,3.39a3,3,0,0,0-.28-1.06,3.43,3.43,0,0,0-.33-1.33c-.33,0-.67.66-1,1a15.87,15.87,0,0,0-1,2.33,8,8,0,0,0-.67,2.67,7.93,7.93,0,0,0-.66,2.67v-3.34c0-1.33-.34-2.33-.34-3.67-.33.67-1,1-1.33,1.67s-.33,1.67-.67,2.34v-1a8.58,8.58,0,0,0-.67,2.33,5,5,0,0,0-.33,2.33l-1,4a12.45,12.45,0,0,1,4-2.34c1.67-.67,3-2,4.67-3.67a27.25,27.25,0,0,1,.33-5,2.17,2.17,0,0,0-.72.06ZM280.5,193a4.63,4.63,0,0,1-1.33-1c-.26-.51-.12-.63.26-1,.11-.1.25-.22.41-.38h1l-.67-.66c.33,0,.67.33,1,.33v1c0,.34.33.34.33.67,0-.33.34-.67.34-1a4.75,4.75,0,0,0,2,.67,4.85,4.85,0,0,1-.67,2.33c-.33-.33-.33-.33-.67-.33-.66-.34-1.33-.34-2-.67Zm-35.67,11.08c.12.06.18.11.26.14l.36.09,2.61.46,3.54.57,1.15.2a1.55,1.55,0,0,0,.43,0,.18.18,0,0,0,.15-.29,2.06,2.06,0,0,0-.23-.37c-.19-.24-.4-.47-.59-.72a1.26,1.26,0,0,0-.47-.39,26.23,26.23,0,0,1-2.33-1.41,3.73,3.73,0,0,1-1-1,1.22,1.22,0,0,0-.42-.36c-.46-.21-.91-.44-1.37-.66l-.66-.29a.71.71,0,0,1-.34-.3c-.14-.23-.27-.46-.42-.68a3.21,3.21,0,0,1-.43-1,21.84,21.84,0,0,1-.41-2.55,14.85,14.85,0,0,0-.71-3.17,1.38,1.38,0,0,0-.5-.7c-.27-.19-.55-.35-.83-.51a.25.25,0,0,0-.36.08.94.94,0,0,0-.14.26c-.07.15-.14.32-.2.48a3.74,3.74,0,0,1-.55.92,9.89,9.89,0,0,0-.7.9l-1.34,2.1-.09.19a.41.41,0,0,0,.09.46,4.15,4.15,0,0,0,.32.27c.22.15.46.3.68.46a4,4,0,0,1,1.32,1.55,2.4,2.4,0,0,0,1,1.05,1.07,1.07,0,0,0,.35.14,1,1,0,0,1,.59.34c.1.11.18.22.28.31a1.31,1.31,0,0,0,.32.26,2.11,2.11,0,0,1,.76.66,6.13,6.13,0,0,1,.44.6,2.24,2.24,0,0,1,.26.54.81.81,0,0,1-.22.89c-.1.1-.22.18-.32.27l-.23.2Zm56-10.08c1-1,1.67-1.67,2-.67a14.22,14.22,0,0,0,2.34,2l-1,1a10.29,10.29,0,0,1-5,3,3.26,3.26,0,0,1-2.67-1ZM271.5,197.7h.33V197a4.29,4.29,0,0,1-2-.33h-.33v.66c.22-.22.44-.14.66-.07h0a1.09,1.09,0,0,0,.34.07c.33,0,.67.34,1,.34Z" transform="translate(-207.81 -115)" style="fill:#6787b7;fill-rule:evenodd"/></svg>