<svg id="Ebene_1" data-name="Ebene 1" xmlns="http://www.w3.org/2000/svg" viewBox="0 0 260.68 84.07"><path d="M173.11,347.43c-.76-.3-3.56-.72-3.56-1.88,0-.86,1-1.11,1.68-1.11a2.52,2.52,0,0,1,1.62.52,1.61,1.61,0,0,1,.4.57c.09.25.15.51.51.51h1.87c.44,0,.55-.07.55-.53,0-2.52-2.65-3.62-5.07-3.62s-4.63,1.31-4.63,3.79,1.77,3.18,3.7,3.79c1.62.52,3.31.54,3.31,1.6s-.83,1.3-1.86,1.3a2.49,2.49,0,0,1-1.87-.63,1.28,1.28,0,0,1-.36-.78c0-.48-.25-.53-.69-.53h-1.85c-.44,0-.55.09-.55.53,0,2.67,2.74,4,5.13,4,2.93,0,5.07-1.3,5.07-4s-2-3.15-3.4-3.57Z" transform="translate(-144.66 -270.93)" style="fill:#6787b7"/><path d="M203.23,342.18h-1.89c-.34,0-.55.11-.55.55v7.73a2.06,2.06,0,0,1-4.1,0v-7.73c0-.44-.21-.55-.55-.55h-1.89c-.34,0-.55.11-.55.55v8.15c0,3,2.76,4.12,5,4.12s5.05-1.12,5.05-4.12v-8.15c0-.44-.21-.55-.55-.55Z" transform="translate(-144.66 -270.93)" style="fill:#6787b7"/><path d="M232.3,354.1l-2.69-3.9a4.1,4.1,0,0,0,2.65-3.79,4.16,4.16,0,0,0-1.11-3c-.8-.8-1.71-1.22-3.79-1.22h-4.8c-.44,0-.54.21-.54.56v11.41c0,.44.19.55.54.55h1.88c.35,0,.56-.11.56-.55v-9.3h2.53a1.62,1.62,0,0,1,1.75,1.62,1.7,1.7,0,0,1-1.81,1.55h-.38c-.44,0-.55.21-.55.55v1.52a1.39,1.39,0,0,0,.21,1l2.06,3.07a1,1,0,0,0,.95.57H232c.36,0,.46-.34.29-.61Z" transform="translate(-144.66 -270.93)" style="fill:#6787b7"/><path d="M258.54,342.18h-8.19c-.44,0-.55.2-.55.55v11.43c0,.34.11.55.55.55h1.88c.44,0,.56-.07.56-.57v-4.46h5c.44,0,.55-.21.55-.55v-1.5c0-.35-.11-.56-.55-.56h-5v-2.23h5.75c.44,0,.55-.21.55-.55v-1.56c0-.35-.11-.55-.55-.55Z" transform="translate(-144.66 -270.93)" style="fill:#6787b7"/><path d="M296.89,347.43c-.76-.3-3.56-.72-3.56-1.88,0-.86,1.05-1.11,1.68-1.11a2.5,2.5,0,0,1,1.62.52,1.61,1.61,0,0,1,.4.57c.09.25.15.51.51.51h1.87c.44,0,.55-.07.55-.53,0-2.52-2.65-3.62-5.07-3.62s-4.63,1.31-4.63,3.79,1.77,3.18,3.7,3.79c1.62.52,3.32.54,3.32,1.6s-.84,1.3-1.87,1.3a2.49,2.49,0,0,1-1.87-.63,1.28,1.28,0,0,1-.36-.78c0-.48-.25-.53-.69-.53h-1.85c-.43,0-.55.09-.55.53,0,2.67,2.75,4,5.13,4,2.93,0,5.07-1.3,5.07-4s-2-3.15-3.4-3.57Z" transform="translate(-144.66 -270.93)" style="fill:#6787b7"/><path d="M327.47,342.18h-1.89c-.34,0-.55.11-.55.55V347h-4.25v-4.3c0-.44-.19-.55-.55-.55h-1.89c-.34,0-.55.11-.55.55v11.43c0,.44.21.55.55.55h1.89c.36,0,.55-.11.55-.55v-4.31H325v4.31c0,.44.21.55.55.55h1.89c.34,0,.55-.11.55-.55V342.73C328,342.29,327.81,342.18,327.47,342.18Z" transform="translate(-144.66 -270.93)" style="fill:#6787b7"/><path d="M356.13,346.2c0-3-2.86-4.31-5.12-4.31s-5.09,1.3-5.09,4.31v4.49c0,3,2.82,4.31,5.09,4.31s5.12-1.3,5.12-4.31Zm-3,4.23a2.14,2.14,0,0,1-4.25,0v-4a2.14,2.14,0,0,1,4.25,0Z" transform="translate(-144.66 -270.93)" style="fill:#6787b7"/><path d="M378.7,342.18h-4.29c-.44,0-.55.2-.55.55v11.43c0,.44.21.55.55.55h1.89c.34,0,.55-.11.55-.55V351h1.83c3.26,0,5-1.76,5-4.4S382,342.18,378.7,342.18Zm0,6.25h-1.83v-3.57h1.83c1.48,0,2.13.8,2.13,1.79S380.16,348.43,378.68,348.43Z" transform="translate(-144.66 -270.93)" style="fill:#6787b7"/><path d="M161.82,330.85q8.64,0,13.23-8.2a25.79,25.79,0,0,0,3.17-12.89,21,21,0,0,0-.15-2.54l-12.94,1a14.61,14.61,0,0,1,.24,2.5,15.49,15.49,0,0,1-.86,5,13.38,13.38,0,0,1-2.3,4.08,4,4,0,0,1-2.93,1.53,2.87,2.87,0,0,1-1.91-.62c-1.49-1.11-2.21-3.07-2.21-5.8a13.41,13.41,0,0,1,3.4-8.92c2.59-3,6.33-4.79,11.17-5.51l3-9.83a26.41,26.41,0,0,1-5,.53,9.65,9.65,0,0,1-5-1.1,3.59,3.59,0,0,1-1.87-2.55l-.05-.62a4.38,4.38,0,0,1,1-2.73,4,4,0,0,1,3.35-1.77c1.82,0,3.55,1.1,5.08,3.26l5.76-11a26.28,26.28,0,0,0-11.22-2.88,16.11,16.11,0,0,0-9.11,2.54,13.89,13.89,0,0,0-5.22,6.33,13.05,13.05,0,0,0,3.3,15.05,24.92,24.92,0,0,0-3.54,3.5,24.39,24.39,0,0,0-2.74,4.17,23.45,23.45,0,0,0-1.82,4.56,18.85,18.85,0,0,0-.76,3.88c-.1,1-.15,1.77-.15,2.2a17.75,17.75,0,0,0,1.49,7.48c2,4.51,5.61,7.38,10.83,8.68a19.25,19.25,0,0,0,4.84.62Z" transform="translate(-144.66 -270.93)" style="fill:#6787b7"/><path d="M188.57,331.33a27.08,27.08,0,0,1,4.75-1.25,28.57,28.57,0,0,0,4.74-1.19c-.05-1.92-.05-3.79-.05-5.76v-2.87a38.9,38.9,0,0,0,16,5.65l3.11-11a29.66,29.66,0,0,1-4.84.43,26.81,26.81,0,0,1-10-1.92,47.59,47.59,0,0,0,6.9-5.13,33.06,33.06,0,0,0,4.84-5.46,24,24,0,0,0,2.93-5.61,19.3,19.3,0,0,0,1.15-4.56c0-1.15.09-1.91.09-2.39a18.22,18.22,0,0,0-2.25-8.82,19.67,19.67,0,0,0-7.43-7.39,23.42,23.42,0,0,0-11.46-2.82q-8.91,0-18.5,5.61L182.72,287A29.46,29.46,0,0,1,188,284.4c-.24,6.66-.34,13.76-.34,21.19,0,12.27.29,20.85,1,25.74Zm9.78-26c.29-7.53.77-15.05,1.44-22.48a11.29,11.29,0,0,1,6.76,3.59,8.22,8.22,0,0,1,1.82,5.18,11.33,11.33,0,0,1-1.53,5.42,26.6,26.6,0,0,1-8.49,8.29Z" transform="translate(-144.66 -270.93)" style="fill:#6787b7"/><path d="M228,283.35a7.65,7.65,0,0,0,2.54-.53,6.37,6.37,0,0,0,2.88-2.16,5.35,5.35,0,0,0,1.15-3.21,5,5,0,0,0-1.15-3,6.13,6.13,0,0,0-5.08-2.4,5.71,5.71,0,0,0-3.5,1.73,7.09,7.09,0,0,0-2.11,4.94,4,4,0,0,0,1.15,2.92,5.23,5.23,0,0,0,4.12,1.73Zm-4.69,46.49,9.44-4.31a117.76,117.76,0,0,1-1.06-16A129.76,129.76,0,0,1,234,285.5L222.22,287c-.48,1.1-.67,5-.67,11.74a255.75,255.75,0,0,0,1.1,26.23C222.85,327,223.09,328.65,223.33,329.84Z" transform="translate(-144.66 -270.93)" style="fill:#6787b7"/><path d="M256.5,330.71a15.45,15.45,0,0,0,5.84-1.2,14.45,14.45,0,0,0,6.33-5.18,20.55,20.55,0,0,0,3.65-12.13,24.49,24.49,0,0,0-.48-5.08H260.33a11.28,11.28,0,0,1,.48,3.36,12,12,0,0,1-1.1,5.08,8.36,8.36,0,0,1-2.78,3.59,4.17,4.17,0,0,1-2.21.68,4.1,4.1,0,0,1-3.45-2.26c-1.77-2.68-2.68-6.9-2.68-12.7a40.16,40.16,0,0,1,2.25-14.19c1.73-4.6,4-6.95,6.76-6.95a7.8,7.8,0,0,1,4.6,1.92c2.59-6,4.08-9.21,4.46-9.59-3.5-2.44-6.9-3.69-10.21-3.69a12.74,12.74,0,0,0-8.58,3.31c-4.56,3.83-7.77,10.4-9.68,19.75A51.83,51.83,0,0,0,237.13,306a38.82,38.82,0,0,0,.48,6.33A27.68,27.68,0,0,0,241,322a16.49,16.49,0,0,0,7,6.66,18.23,18.23,0,0,0,8.49,2Z" transform="translate(-144.66 -270.93)" style="fill:#6787b7"/><path d="M292.54,330.85q8.64,0,13.23-8.2a25.79,25.79,0,0,0,3.17-12.89,21,21,0,0,0-.15-2.54l-12.94,1a13.67,13.67,0,0,1,.24,2.5,15.49,15.49,0,0,1-.86,5,13.18,13.18,0,0,1-2.3,4.08,4,4,0,0,1-2.93,1.53,2.87,2.87,0,0,1-1.91-.62c-1.49-1.11-2.21-3.07-2.21-5.8a13.41,13.41,0,0,1,3.4-8.92c2.59-3,6.33-4.79,11.17-5.51l3-9.83a26.59,26.59,0,0,1-5,.53,9.65,9.65,0,0,1-5-1.1,3.62,3.62,0,0,1-1.87-2.55l-.05-.62a4.38,4.38,0,0,1,1-2.73,4,4,0,0,1,3.35-1.77c1.83,0,3.55,1.1,5.09,3.26l5.75-11a26.28,26.28,0,0,0-11.22-2.88,16.11,16.11,0,0,0-9.11,2.54,14,14,0,0,0-5.22,6.33,13.09,13.09,0,0,0,3.31,15.05,24.48,24.48,0,0,0-3.55,3.5,23.75,23.75,0,0,0-2.73,4.17,23.49,23.49,0,0,0-1.83,4.56,19.55,19.55,0,0,0-.76,3.88c-.1,1-.15,1.77-.15,2.2a17.75,17.75,0,0,0,1.49,7.48c2,4.51,5.61,7.38,10.83,8.68a19.25,19.25,0,0,0,4.84.62Z" transform="translate(-144.66 -270.93)" style="fill:#6787b7"/><path d="M319.58,283.35a7.65,7.65,0,0,0,2.54-.53,6.37,6.37,0,0,0,2.88-2.16,5.42,5.42,0,0,0,1.15-3.21,5,5,0,0,0-1.15-3,6.14,6.14,0,0,0-5.08-2.4,5.66,5.66,0,0,0-3.5,1.73,7.09,7.09,0,0,0-2.11,4.94,4,4,0,0,0,1.15,2.92,5.2,5.2,0,0,0,4.12,1.73Zm-4.7,46.49,9.45-4.31a117.76,117.76,0,0,1-1.06-16,129.76,129.76,0,0,1,2.3-24.07L313.78,287c-.48,1.1-.67,5-.67,11.74a252.92,252.92,0,0,0,1.1,26.23,47.39,47.39,0,0,0,.67,4.88Z" transform="translate(-144.66 -270.93)" style="fill:#6787b7"/><path d="M386.74,329.84l18.6-5.27a3.34,3.34,0,0,1-.91-1,17.68,17.68,0,0,1-2.83-6.37,45.34,45.34,0,0,1-1.54-6.57A127,127,0,0,1,398.2,289c-.05-1.87-.05-4.85-.05-8.92.05-2.88.09-5.9.19-9.11a105.79,105.79,0,0,1-15.29,1.3,43.1,43.1,0,0,1-7.82-.72c-.24,4.45-.57,9.06-1.1,13.75a221,221,0,0,1-5.75,30.83,34.08,34.08,0,0,0,8.58,1,13.11,13.11,0,0,0,2.59-.19c.05-.19.09-.86.19-2l.24-2.45,7.33-1.48Zm-48.08,1.49a22.58,22.58,0,0,1,4.74-1.25,26.4,26.4,0,0,0,4.75-1.24c0-2.64,0-5.28,0-7.91a53.47,53.47,0,0,0,9,4.89A58,58,0,0,0,380.17,331h1.44l2-11a35.7,35.7,0,0,1-5.56.43,49.57,49.57,0,0,1-11.5-1.44,61.83,61.83,0,0,1-14.67-5.32,40.09,40.09,0,0,0,11.31-9.59c3.45-4.46,5.18-9,5.18-13.71a18.73,18.73,0,0,0-1.1-6.33,19.18,19.18,0,0,0-5.42-7.81c-4-3.4-8.92-5.08-14.86-5.08a30.09,30.09,0,0,0-5.7.57,42.23,42.23,0,0,0-6.14,1.83,40.9,40.9,0,0,0-6.42,3.21l4.07,10.11a37.79,37.79,0,0,1,5.23-2.59c-.24,6.81-.34,13.57-.34,20.33,0,12.84.34,21.71,1,26.65Zm9.78-26q.44-11.28,1.44-22.43a15.08,15.08,0,0,1,3.5,1.05,12.43,12.43,0,0,1,2.68,1.87,8.93,8.93,0,0,1,1.73,2.45,6.73,6.73,0,0,1,.67,2.25c0,.57,0,.91,0,1a11.65,11.65,0,0,1-2.2,6.56,27.75,27.75,0,0,1-7.86,7.24Zm32.93-1.05,2.3-11.8,4.46-.86-.53,12.08Z" transform="translate(-144.66 -270.93)" style="fill:#6787b7"/></svg>